<?xml version="1.0" encoding="utf-8"?>
<!-- Generator: Adobe Illustrator 16.0.0, SVG Export Plug-In . SVG Version: 6.00 Build 0)  -->
<!DOCTYPE svg PUBLIC "-//W3C//DTD SVG 1.1//EN" "http://www.w3.org/Graphics/SVG/1.1/DTD/svg11.dtd">
<svg version="1.1" id="Layer_1" xmlns="http://www.w3.org/2000/svg" xmlns:xlink="http://www.w3.org/1999/xlink" x="0px" y="0px"
	 width="50px" height="50px" viewBox="0 0 50 50" enable-background="new 0 0 50 50" xml:space="preserve">
<g>
	<g>
		<path fill="#1B1464" d="M38.257,25c0,0-0.002,0.082-0.006,0.241c-0.002,0.079-0.004,0.178-0.006,0.294
			c-0.003,0.058-0.002,0.122-0.008,0.189c-0.005,0.067-0.009,0.14-0.016,0.217c-0.039,0.612-0.137,1.516-0.443,2.622
			c-0.04,0.14-0.079,0.28-0.121,0.425c-0.048,0.143-0.098,0.291-0.147,0.441c-0.048,0.15-0.109,0.3-0.171,0.456
			c-0.06,0.153-0.117,0.313-0.192,0.469c-0.272,0.636-0.622,1.302-1.059,1.971c-0.436,0.672-0.961,1.347-1.584,1.995
			c-0.624,0.646-1.339,1.272-2.156,1.826c-0.815,0.553-1.729,1.041-2.725,1.427c-0.122,0.054-0.25,0.092-0.378,0.137
			c-0.127,0.045-0.253,0.091-0.382,0.132c-0.131,0.037-0.261,0.076-0.394,0.115c-0.063,0.019-0.13,0.037-0.195,0.057
			c-0.066,0.017-0.134,0.032-0.201,0.049c-0.134,0.031-0.268,0.064-0.403,0.096c-0.136,0.032-0.273,0.053-0.411,0.08
			c-0.067,0.013-0.137,0.026-0.205,0.039l-0.105,0.019l-0.104,0.015c-0.14,0.019-0.28,0.037-0.421,0.058
			c-0.14,0.022-0.281,0.029-0.424,0.043c-0.143,0.011-0.286,0.023-0.429,0.035c-0.144,0.004-0.289,0.009-0.432,0.013
			c-0.073,0.004-0.146,0.006-0.218,0.008c-0.007,0-0.022,0.002-0.031,0h-0.027h-0.055l-0.107-0.002
			c-0.145-0.004-0.29-0.006-0.435-0.008c-0.146-0.004-0.294-0.019-0.441-0.027c-0.297-0.014-0.591-0.056-0.887-0.089
			c-0.591-0.09-1.186-0.201-1.773-0.371c-0.295-0.074-0.584-0.18-0.877-0.274c-0.146-0.052-0.288-0.109-0.433-0.165l-0.217-0.084
			l-0.213-0.094c-1.142-0.493-2.231-1.163-3.222-1.977c-0.122-0.104-0.244-0.208-0.366-0.312c-0.121-0.107-0.235-0.221-0.353-0.332
			c-0.059-0.054-0.118-0.109-0.175-0.167l-0.169-0.175l-0.167-0.174c-0.057-0.06-0.113-0.115-0.166-0.178
			c-0.106-0.123-0.213-0.245-0.32-0.367c-0.107-0.124-0.204-0.254-0.307-0.38c-0.05-0.065-0.102-0.128-0.152-0.193l-0.143-0.2
			L13.743,32.7c-0.049-0.066-0.096-0.132-0.14-0.202c-0.089-0.137-0.178-0.274-0.267-0.413c-0.088-0.138-0.167-0.282-0.251-0.425
			c-0.04-0.07-0.083-0.141-0.122-0.214l-0.114-0.22l-0.114-0.219l-0.056-0.109c-0.019-0.037-0.035-0.074-0.052-0.113
			c-0.067-0.15-0.136-0.301-0.205-0.451c-0.066-0.149-0.124-0.308-0.186-0.46c-0.03-0.077-0.062-0.153-0.091-0.231l-0.079-0.235
			l-0.081-0.235l-0.04-0.117c-0.014-0.04-0.023-0.079-0.035-0.12l-0.137-0.479c-0.025-0.08-0.041-0.161-0.06-0.241l-0.057-0.244
			L11.6,27.729l-0.043-0.247l-0.044-0.246c-0.014-0.08-0.031-0.163-0.041-0.245l-0.063-0.495c-0.005-0.041-0.012-0.083-0.016-0.124
			l-0.009-0.124l-0.02-0.25l-0.02-0.249c-0.006-0.083-0.005-0.167-0.009-0.25l-0.013-0.505l0.014-0.492
			c0.003-0.082,0.002-0.163,0.009-0.247l0.019-0.251l0.02-0.251l0.01-0.125c0.004-0.042,0.01-0.083,0.015-0.124l0.064-0.496
			c0.009-0.083,0.026-0.165,0.04-0.246l0.044-0.246l0.044-0.246l0.057-0.243l0.056-0.242c0.021-0.081,0.035-0.164,0.06-0.242
			l0.137-0.479c0.012-0.039,0.022-0.08,0.035-0.119l0.04-0.118l0.081-0.235l0.081-0.235c0.028-0.078,0.059-0.154,0.09-0.232
			c0.062-0.153,0.119-0.308,0.186-0.46c0.067-0.15,0.136-0.301,0.205-0.451c0.017-0.038,0.034-0.076,0.052-0.112l0.056-0.11
			l0.114-0.219l0.114-0.219c0.039-0.072,0.083-0.143,0.123-0.214c0.084-0.141,0.163-0.285,0.25-0.424
			c0.09-0.138,0.179-0.275,0.268-0.414c0.043-0.069,0.091-0.135,0.139-0.202l0.144-0.2l0.143-0.199
			c0.049-0.065,0.101-0.128,0.151-0.192c0.102-0.126,0.2-0.257,0.306-0.381c0.107-0.122,0.214-0.244,0.321-0.366
			c0.053-0.062,0.109-0.12,0.166-0.179l0.167-0.175l0.168-0.175c0.058-0.057,0.118-0.111,0.176-0.167
			c0.118-0.11,0.231-0.224,0.353-0.33c0.122-0.104,0.244-0.208,0.366-0.312c0.99-0.815,2.08-1.483,3.222-1.976l0.212-0.094
			l0.217-0.084c0.145-0.055,0.288-0.112,0.433-0.165c0.293-0.094,0.583-0.2,0.878-0.275c0.586-0.17,1.181-0.281,1.772-0.369
			c0.296-0.034,0.59-0.076,0.885-0.09c0.147-0.009,0.294-0.023,0.441-0.027c0.146-0.003,0.292-0.005,0.438-0.008
			c0.075,0,0.143-0.003,0.221-0.002c0.073,0.002,0.144,0.004,0.215,0.007c0.144,0.005,0.287,0.01,0.429,0.015
			c0.144,0.009,0.288,0.023,0.431,0.035c0.142,0.012,0.286,0.021,0.425,0.043c0.141,0.019,0.281,0.038,0.421,0.057l0.104,0.014
			l0.105,0.02c0.068,0.013,0.137,0.025,0.205,0.038c0.138,0.027,0.275,0.048,0.411,0.08c0.136,0.032,0.27,0.064,0.402,0.097
			c0.068,0.016,0.136,0.031,0.202,0.048c0.064,0.02,0.131,0.039,0.195,0.058c0.132,0.039,0.263,0.077,0.394,0.115
			c0.129,0.041,0.255,0.088,0.382,0.131c0.128,0.045,0.256,0.084,0.378,0.137c0.994,0.385,1.908,0.873,2.725,1.426
			c0.104,0.068,0.2,0.143,0.3,0.214c0.098,0.072,0.198,0.141,0.295,0.214c0.094,0.076,0.188,0.15,0.28,0.225
			c0.093,0.075,0.188,0.146,0.275,0.226c0.357,0.309,0.696,0.621,1.006,0.947c0.623,0.648,1.148,1.324,1.584,1.994
			c0.437,0.67,0.786,1.335,1.059,1.972c0.075,0.156,0.133,0.316,0.192,0.47c0.062,0.154,0.123,0.304,0.171,0.456
			c0.05,0.151,0.1,0.297,0.147,0.44c0.042,0.146,0.081,0.287,0.121,0.425c0.307,1.108,0.404,2.01,0.443,2.623
			c0.007,0.077,0.011,0.149,0.016,0.216c0.006,0.067,0.005,0.131,0.008,0.189c0.002,0.117,0.004,0.216,0.006,0.295
			C38.255,24.918,38.257,25,38.257,25L38.257,25z M38.231,25c0,0-0.002-0.082-0.007-0.241c-0.002-0.079-0.005-0.177-0.008-0.294
			c-0.002-0.059-0.001-0.122-0.006-0.189c-0.006-0.067-0.012-0.139-0.017-0.216c-0.04-0.611-0.14-1.512-0.447-2.615
			c-0.04-0.138-0.08-0.279-0.121-0.424c-0.05-0.143-0.098-0.29-0.149-0.439c-0.047-0.15-0.109-0.3-0.17-0.454
			c-0.062-0.154-0.119-0.313-0.193-0.468c-0.273-0.634-0.626-1.295-1.064-1.961c-0.438-0.666-0.963-1.336-1.586-1.978
			c-0.624-0.641-1.342-1.257-2.158-1.801c-0.818-0.544-1.729-1.021-2.718-1.396c-0.122-0.051-0.249-0.088-0.375-0.132
			c-0.128-0.042-0.253-0.087-0.382-0.126c-0.129-0.037-0.259-0.074-0.389-0.111c-0.066-0.019-0.132-0.037-0.196-0.056
			c-0.066-0.017-0.132-0.031-0.2-0.047c-0.131-0.031-0.266-0.061-0.4-0.092c-0.134-0.03-0.271-0.05-0.407-0.076
			c-0.067-0.012-0.137-0.024-0.204-0.037l-0.103-0.018l-0.104-0.013c-0.138-0.018-0.277-0.035-0.417-0.053
			c-0.138-0.021-0.279-0.028-0.421-0.039c-0.14-0.011-0.282-0.023-0.425-0.032c-0.142-0.003-0.285-0.007-0.428-0.01
			c-0.072-0.002-0.144-0.003-0.216-0.006c-0.07,0-0.144,0.003-0.215,0.005c-0.145,0.003-0.289,0.007-0.434,0.011
			c-0.145,0.005-0.29,0.02-0.436,0.03c-0.291,0.016-0.581,0.061-0.874,0.097c-0.583,0.091-1.17,0.205-1.748,0.379
			c-0.291,0.076-0.575,0.182-0.864,0.277c-0.142,0.053-0.283,0.111-0.426,0.167l-0.212,0.084l-0.209,0.095
			c-1.123,0.495-2.189,1.162-3.157,1.971c-0.119,0.103-0.238,0.207-0.358,0.311c-0.119,0.105-0.231,0.217-0.346,0.326
			c-0.058,0.055-0.116,0.108-0.173,0.165l-0.164,0.173l-0.164,0.173c-0.056,0.058-0.111,0.115-0.161,0.176
			c-0.105,0.121-0.209,0.241-0.314,0.362c-0.104,0.122-0.198,0.25-0.299,0.375c-0.048,0.064-0.099,0.125-0.147,0.19l-0.14,0.196
			l-0.139,0.196c-0.046,0.065-0.094,0.131-0.136,0.2c-0.087,0.135-0.173,0.271-0.261,0.406c-0.085,0.137-0.162,0.28-0.244,0.418
			c-0.04,0.07-0.082,0.139-0.12,0.211l-0.11,0.216l-0.11,0.216l-0.056,0.108c-0.019,0.036-0.034,0.074-0.051,0.11
			c-0.067,0.148-0.134,0.295-0.2,0.444c-0.065,0.148-0.121,0.301-0.182,0.452c-0.028,0.076-0.06,0.15-0.088,0.227l-0.078,0.231
			l-0.078,0.231l-0.039,0.116c-0.013,0.039-0.023,0.078-0.034,0.117l-0.133,0.47c-0.024,0.078-0.038,0.158-0.058,0.237l-0.056,0.238
			l-0.055,0.239l-0.042,0.241l-0.044,0.241c-0.013,0.081-0.029,0.161-0.039,0.242l-0.062,0.486c-0.005,0.04-0.011,0.081-0.015,0.122
			l-0.009,0.122l-0.019,0.244l-0.019,0.244c-0.007,0.082-0.005,0.164-0.008,0.245L11.582,25l0.013,0.49
			c0.003,0.082,0.001,0.164,0.008,0.245l0.019,0.244l0.019,0.245l0.009,0.122c0.004,0.041,0.009,0.08,0.015,0.123l0.062,0.485
			c0.009,0.08,0.026,0.161,0.039,0.241l0.044,0.241l0.042,0.241l0.055,0.239l0.056,0.237c0.02,0.079,0.033,0.159,0.058,0.237
			l0.133,0.471c0.011,0.039,0.021,0.078,0.034,0.116l0.039,0.115l0.078,0.231l0.078,0.232c0.028,0.076,0.06,0.15,0.088,0.226
			c0.062,0.152,0.117,0.305,0.182,0.453c0.066,0.148,0.133,0.296,0.2,0.442c0.017,0.037,0.032,0.074,0.051,0.109l0.056,0.11
			l0.11,0.215l0.11,0.217c0.038,0.07,0.08,0.141,0.12,0.209c0.082,0.142,0.158,0.282,0.244,0.42
			c0.087,0.135,0.173,0.271,0.261,0.407c0.042,0.067,0.09,0.134,0.136,0.198l0.139,0.197l0.14,0.196
			c0.048,0.062,0.099,0.126,0.147,0.189c0.101,0.124,0.196,0.254,0.299,0.374c0.105,0.122,0.209,0.243,0.314,0.363
			c0.05,0.062,0.105,0.119,0.161,0.177l0.164,0.172l0.164,0.173c0.057,0.058,0.116,0.111,0.173,0.165
			c0.115,0.109,0.227,0.221,0.346,0.326c0.12,0.104,0.239,0.207,0.358,0.312c0.968,0.809,2.035,1.476,3.157,1.971l0.209,0.095
			l0.212,0.083c0.143,0.056,0.284,0.113,0.426,0.167c0.289,0.095,0.573,0.2,0.864,0.278c0.578,0.174,1.165,0.287,1.748,0.378
			c0.293,0.035,0.583,0.08,0.874,0.097c0.146,0.009,0.291,0.026,0.435,0.029c0.146,0.004,0.29,0.01,0.435,0.014
			c0.072,0,0.145,0.003,0.215,0.003c0.072-0.001,0.144-0.003,0.216-0.005c0.143-0.004,0.286-0.008,0.428-0.012
			c0.142-0.009,0.284-0.021,0.425-0.029c0.142-0.011,0.283-0.019,0.421-0.041c0.139-0.017,0.279-0.035,0.417-0.052l0.104-0.015
			l0.104-0.017c0.067-0.014,0.137-0.024,0.204-0.037c0.137-0.026,0.273-0.047,0.407-0.076c0.135-0.031,0.269-0.062,0.4-0.093
			c0.068-0.015,0.134-0.029,0.2-0.045c0.064-0.02,0.13-0.037,0.196-0.057c0.13-0.037,0.26-0.074,0.389-0.109
			c0.129-0.041,0.254-0.086,0.382-0.128c0.126-0.045,0.253-0.08,0.375-0.134c0.989-0.375,1.899-0.85,2.718-1.393
			c0.816-0.545,1.534-1.162,2.158-1.802c0.623-0.642,1.148-1.313,1.586-1.979c0.438-0.666,0.791-1.328,1.064-1.962
			c0.074-0.155,0.132-0.315,0.193-0.467c0.061-0.156,0.123-0.305,0.17-0.456c0.052-0.148,0.1-0.297,0.149-0.438
			c0.041-0.145,0.081-0.285,0.121-0.424c0.308-1.104,0.407-2.005,0.447-2.615c0.005-0.076,0.011-0.148,0.017-0.215
			c0.005-0.068,0.004-0.131,0.006-0.189c0.003-0.118,0.006-0.216,0.008-0.295C38.229,25.082,38.231,25,38.231,25L38.231,25z"/>
		<path fill="#1B1464" d="M25,39.683c0,0-0.09-0.002-0.264-0.006c-0.087-0.001-0.196-0.005-0.325-0.009
			c-0.065-0.002-0.134,0-0.208-0.006c-0.074-0.005-0.153-0.011-0.238-0.019c-0.673-0.042-1.665-0.15-2.882-0.487
			c-0.152-0.043-0.308-0.087-0.467-0.132c-0.158-0.054-0.319-0.107-0.484-0.165c-0.167-0.052-0.332-0.118-0.501-0.186
			c-0.168-0.068-0.345-0.132-0.516-0.213c-0.699-0.301-1.43-0.685-2.167-1.164c-0.736-0.479-1.479-1.058-2.191-1.741
			c-0.357-0.342-0.701-0.714-1.04-1.105c-0.088-0.096-0.165-0.2-0.249-0.304c-0.082-0.103-0.164-0.204-0.247-0.308
			c-0.08-0.106-0.156-0.217-0.235-0.325c-0.077-0.109-0.16-0.217-0.234-0.33c-0.607-0.896-1.142-1.901-1.566-2.994l-0.041-0.102
			c-0.013-0.035-0.024-0.07-0.037-0.104c-0.023-0.07-0.048-0.139-0.072-0.209c-0.047-0.139-0.098-0.28-0.144-0.421
			c-0.042-0.143-0.083-0.285-0.125-0.431c-0.021-0.072-0.043-0.145-0.063-0.217c-0.02-0.074-0.036-0.146-0.054-0.221
			c-0.036-0.146-0.071-0.294-0.106-0.442c-0.02-0.074-0.03-0.15-0.045-0.225c-0.014-0.076-0.028-0.15-0.042-0.227
			c-0.014-0.076-0.028-0.151-0.042-0.226l-0.022-0.115l-0.015-0.115c-0.021-0.153-0.042-0.308-0.062-0.462
			c-0.024-0.153-0.033-0.312-0.047-0.467c-0.012-0.157-0.027-0.313-0.038-0.471c-0.004-0.158-0.01-0.317-0.015-0.476
			c-0.003-0.08-0.005-0.159-0.007-0.239c-0.001-0.007-0.002-0.023-0.002-0.033l0.002-0.029l0.001-0.06l0.002-0.119
			c0.001-0.159,0.005-0.318,0.008-0.478c-0.001-0.08,0.009-0.161,0.014-0.242c0.005-0.081,0.011-0.162,0.016-0.243
			c0.016-0.326,0.063-0.649,0.1-0.975c0.098-0.648,0.22-1.302,0.408-1.945c0.083-0.325,0.197-0.642,0.302-0.964
			c0.057-0.159,0.121-0.316,0.181-0.476l0.093-0.238l0.104-0.233c0.542-1.254,1.277-2.45,2.172-3.537
			c0.114-0.134,0.229-0.268,0.344-0.402c0.117-0.132,0.241-0.257,0.362-0.387c0.061-0.064,0.122-0.13,0.184-0.193l0.192-0.185
			L14.88,14.1c0.064-0.062,0.128-0.124,0.196-0.182c0.134-0.117,0.269-0.234,0.402-0.352c0.067-0.06,0.138-0.113,0.208-0.169
			l0.21-0.167c0.07-0.055,0.14-0.112,0.211-0.167l0.219-0.156l0.219-0.157c0.072-0.053,0.146-0.106,0.221-0.153
			c0.151-0.098,0.302-0.194,0.454-0.292c0.074-0.051,0.155-0.093,0.232-0.139l0.234-0.136c0.079-0.045,0.156-0.092,0.235-0.135
			l0.241-0.125l0.24-0.125l0.122-0.063c0.04-0.02,0.083-0.038,0.124-0.057c0.165-0.075,0.33-0.15,0.495-0.225
			c0.167-0.072,0.338-0.135,0.505-0.203c0.084-0.033,0.169-0.068,0.254-0.1l0.259-0.087l0.258-0.088l0.13-0.044
			c0.043-0.015,0.087-0.025,0.13-0.038l0.527-0.15c0.087-0.027,0.176-0.043,0.265-0.066l0.267-0.062l0.266-0.062l0.27-0.048
			l0.27-0.049c0.09-0.015,0.179-0.035,0.271-0.044l0.543-0.069c0.045-0.006,0.09-0.013,0.135-0.017l0.137-0.011l0.273-0.021
			l0.273-0.021c0.091-0.008,0.183-0.006,0.273-0.01l0.554-0.014l0.541,0.014c0.09,0.004,0.179,0.002,0.271,0.01l0.276,0.021
			l0.275,0.021l0.139,0.011c0.044,0.004,0.09,0.011,0.136,0.017l0.543,0.07c0.091,0.01,0.182,0.029,0.271,0.044l0.271,0.049
			l0.269,0.049l0.268,0.062l0.267,0.062c0.088,0.022,0.177,0.039,0.266,0.065l0.524,0.15c0.044,0.013,0.088,0.024,0.132,0.039
			l0.13,0.044l0.257,0.087l0.259,0.088c0.085,0.031,0.17,0.066,0.254,0.099c0.169,0.068,0.34,0.131,0.506,0.204
			c0.166,0.075,0.33,0.15,0.495,0.226c0.041,0.019,0.083,0.037,0.123,0.057l0.12,0.062l0.241,0.125l0.24,0.125
			c0.081,0.043,0.157,0.09,0.235,0.135l0.234,0.136c0.077,0.046,0.158,0.087,0.232,0.138c0.151,0.098,0.302,0.195,0.453,0.293
			c0.077,0.048,0.15,0.1,0.223,0.154l0.219,0.156l0.219,0.157c0.071,0.054,0.14,0.111,0.21,0.166l0.212,0.167
			c0.068,0.057,0.141,0.109,0.206,0.169c0.135,0.118,0.27,0.235,0.403,0.353c0.069,0.057,0.132,0.12,0.196,0.181l0.192,0.185
			l0.191,0.185c0.062,0.063,0.122,0.128,0.184,0.192c0.121,0.129,0.245,0.255,0.362,0.387c0.114,0.135,0.229,0.269,0.343,0.402
			c0.896,1.086,1.63,2.282,2.173,3.536l0.104,0.233l0.092,0.238c0.061,0.159,0.124,0.316,0.183,0.476
			c0.103,0.322,0.22,0.638,0.301,0.964c0.188,0.643,0.311,1.297,0.408,1.945c0.037,0.325,0.084,0.649,0.1,0.973
			c0.01,0.162,0.025,0.323,0.03,0.484c0.002,0.161,0.005,0.321,0.008,0.481c0.002,0.081,0.005,0.157,0.003,0.242
			c-0.002,0.08-0.005,0.158-0.007,0.237c-0.005,0.157-0.01,0.314-0.017,0.472c-0.01,0.158-0.024,0.316-0.037,0.471
			c-0.014,0.157-0.022,0.315-0.046,0.469c-0.021,0.154-0.043,0.309-0.062,0.462l-0.017,0.115l-0.021,0.115
			c-0.015,0.074-0.028,0.149-0.042,0.226c-0.015,0.076-0.028,0.15-0.042,0.227c-0.015,0.074-0.026,0.15-0.046,0.225
			c-0.035,0.148-0.07,0.296-0.104,0.442c-0.019,0.072-0.035,0.146-0.055,0.221c-0.021,0.072-0.042,0.145-0.062,0.217
			c-0.042,0.144-0.084,0.288-0.125,0.431c-0.046,0.141-0.097,0.282-0.145,0.421c-0.023,0.068-0.048,0.139-0.072,0.209
			c-0.012,0.034-0.022,0.069-0.037,0.104l-0.04,0.102c-0.423,1.093-0.958,2.098-1.566,2.994c-0.074,0.113-0.156,0.221-0.234,0.33
			c-0.079,0.108-0.155,0.218-0.234,0.325c-0.083,0.102-0.166,0.205-0.247,0.308c-0.083,0.102-0.161,0.208-0.248,0.304
			c-0.339,0.392-0.683,0.764-1.041,1.105c-0.712,0.684-1.454,1.263-2.189,1.741c-0.737,0.479-1.469,0.863-2.168,1.164
			c-0.172,0.081-0.348,0.145-0.517,0.213c-0.169,0.067-0.334,0.134-0.501,0.186c-0.165,0.058-0.326,0.111-0.483,0.165
			c-0.16,0.045-0.316,0.089-0.468,0.132c-1.217,0.337-2.209,0.445-2.883,0.487c-0.084,0.008-0.164,0.014-0.238,0.019
			c-0.074,0.006-0.144,0.004-0.208,0.006c-0.129,0.004-0.237,0.008-0.325,0.009C25.09,39.681,25,39.683,25,39.683L25,39.683z
			 M25,39.657c0,0,0.09-0.002,0.264-0.006c0.087-0.004,0.196-0.006,0.324-0.01c0.065-0.002,0.134-0.002,0.208-0.007
			c0.074-0.006,0.154-0.012,0.238-0.019c0.672-0.043,1.662-0.152,2.877-0.491c0.15-0.045,0.305-0.088,0.465-0.134
			c0.156-0.052,0.317-0.107,0.481-0.163c0.167-0.052,0.332-0.121,0.501-0.188c0.169-0.068,0.343-0.132,0.516-0.213
			c0.696-0.299,1.423-0.688,2.155-1.17c0.731-0.482,1.47-1.059,2.175-1.745c0.705-0.686,1.382-1.474,1.981-2.371
			c0.598-0.899,1.121-1.9,1.533-2.989l0.04-0.102c0.014-0.033,0.023-0.068,0.036-0.103c0.023-0.07,0.047-0.139,0.07-0.209
			c0.045-0.14,0.096-0.276,0.14-0.419c0.04-0.142,0.08-0.284,0.122-0.429c0.02-0.07,0.04-0.143,0.061-0.215
			c0.018-0.072,0.033-0.145,0.052-0.219c0.033-0.146,0.067-0.293,0.102-0.439c0.018-0.074,0.028-0.148,0.043-0.225
			c0.013-0.074,0.025-0.148,0.039-0.225c0.015-0.073,0.028-0.149,0.041-0.224l0.02-0.113l0.016-0.115
			c0.018-0.151,0.038-0.306,0.058-0.458c0.022-0.151,0.031-0.308,0.044-0.463c0.011-0.156,0.023-0.31,0.033-0.466
			c0.005-0.157,0.007-0.314,0.012-0.472c0.001-0.079,0.004-0.158,0.007-0.237c0-0.078-0.005-0.158-0.006-0.237
			c-0.004-0.159-0.008-0.318-0.013-0.477s-0.021-0.318-0.032-0.479c-0.018-0.321-0.067-0.64-0.106-0.962
			c-0.101-0.64-0.227-1.286-0.417-1.92c-0.083-0.321-0.2-0.632-0.306-0.95c-0.058-0.157-0.12-0.311-0.183-0.468l-0.093-0.234
			l-0.104-0.23c-0.545-1.234-1.277-2.407-2.168-3.472c-0.113-0.131-0.227-0.262-0.341-0.394c-0.116-0.13-0.24-0.253-0.359-0.38
			c-0.06-0.063-0.119-0.127-0.182-0.189l-0.188-0.181l-0.19-0.181c-0.062-0.061-0.126-0.122-0.194-0.178
			c-0.132-0.115-0.265-0.23-0.397-0.345c-0.065-0.06-0.138-0.11-0.205-0.166l-0.209-0.163c-0.068-0.053-0.138-0.109-0.207-0.162
			L33.534,13.1l-0.216-0.154c-0.072-0.051-0.143-0.103-0.22-0.148c-0.149-0.096-0.299-0.191-0.445-0.287
			c-0.074-0.05-0.154-0.09-0.23-0.135l-0.229-0.133c-0.079-0.044-0.155-0.089-0.233-0.131l-0.237-0.122l-0.237-0.122l-0.119-0.061
			c-0.039-0.02-0.08-0.037-0.121-0.056c-0.162-0.073-0.324-0.146-0.487-0.22c-0.163-0.071-0.332-0.132-0.497-0.199
			c-0.083-0.032-0.166-0.067-0.249-0.097l-0.255-0.086l-0.254-0.086l-0.127-0.043c-0.043-0.014-0.087-0.025-0.128-0.038
			l-0.519-0.147c-0.086-0.026-0.173-0.042-0.261-0.063l-0.262-0.061l-0.263-0.06l-0.265-0.047l-0.265-0.047
			c-0.09-0.016-0.177-0.035-0.267-0.043l-0.534-0.068c-0.044-0.005-0.089-0.012-0.134-0.016l-0.135-0.01l-0.269-0.021l-0.268-0.02
			c-0.09-0.007-0.18-0.006-0.271-0.009l-0.54-0.014l-0.538,0.014c-0.09,0.003-0.18,0.002-0.27,0.009l-0.269,0.021l-0.269,0.021
			l-0.134,0.01c-0.044,0.004-0.089,0.011-0.133,0.016l-0.535,0.068c-0.089,0.009-0.177,0.028-0.265,0.043l-0.265,0.047l-0.265,0.047
			l-0.262,0.06l-0.262,0.061c-0.087,0.021-0.176,0.037-0.261,0.063l-0.518,0.147c-0.042,0.013-0.086,0.024-0.128,0.038l-0.127,0.043
			l-0.254,0.086l-0.254,0.086c-0.084,0.03-0.167,0.064-0.25,0.097c-0.165,0.067-0.333,0.127-0.497,0.199
			c-0.163,0.073-0.326,0.146-0.488,0.22c-0.04,0.019-0.082,0.036-0.122,0.056l-0.119,0.061l-0.237,0.121l-0.237,0.122
			c-0.078,0.042-0.155,0.087-0.231,0.131l-0.231,0.133c-0.076,0.045-0.156,0.085-0.229,0.135c-0.149,0.096-0.299,0.191-0.447,0.287
			c-0.076,0.046-0.148,0.098-0.22,0.148L16.465,13.1l-0.215,0.154c-0.071,0.053-0.14,0.109-0.209,0.162l-0.208,0.164
			c-0.069,0.055-0.14,0.106-0.205,0.166c-0.133,0.115-0.266,0.23-0.398,0.345c-0.068,0.056-0.13,0.117-0.194,0.178l-0.189,0.181
			l-0.19,0.181c-0.062,0.062-0.122,0.125-0.182,0.189c-0.12,0.126-0.243,0.25-0.359,0.38c-0.114,0.131-0.227,0.262-0.341,0.394
			c-0.89,1.064-1.624,2.238-2.167,3.472l-0.104,0.23l-0.093,0.234c-0.061,0.157-0.125,0.311-0.183,0.468
			c-0.104,0.318-0.222,0.629-0.306,0.95c-0.19,0.635-0.315,1.28-0.417,1.92c-0.04,0.323-0.089,0.642-0.105,0.962
			c-0.011,0.161-0.028,0.319-0.034,0.479c-0.004,0.159-0.008,0.318-0.013,0.478c-0.001,0.079-0.005,0.159-0.005,0.237
			c0.002,0.079,0.004,0.158,0.006,0.236c0.004,0.158,0.008,0.315,0.012,0.471c0.009,0.157,0.023,0.311,0.035,0.467
			c0.012,0.155,0.02,0.312,0.043,0.463c0.02,0.152,0.039,0.307,0.057,0.458l0.015,0.115l0.021,0.113
			c0.013,0.074,0.027,0.15,0.04,0.224c0.014,0.076,0.027,0.15,0.041,0.225c0.014,0.076,0.023,0.15,0.042,0.225
			c0.034,0.146,0.068,0.293,0.101,0.439c0.018,0.074,0.033,0.146,0.052,0.219c0.02,0.072,0.04,0.145,0.062,0.215
			c0.04,0.145,0.081,0.287,0.121,0.429c0.044,0.143,0.093,0.279,0.14,0.419c0.022,0.07,0.046,0.139,0.07,0.209
			c0.012,0.034,0.023,0.069,0.036,0.103l0.04,0.102c0.412,1.089,0.936,2.09,1.534,2.989c0.599,0.897,1.276,1.686,1.981,2.371
			c0.706,0.687,1.442,1.263,2.175,1.745c0.733,0.481,1.459,0.871,2.156,1.17c0.171,0.081,0.346,0.145,0.515,0.213
			c0.169,0.066,0.333,0.136,0.5,0.188c0.165,0.056,0.326,0.111,0.483,0.163c0.16,0.046,0.314,0.089,0.466,0.134
			c1.214,0.339,2.204,0.448,2.875,0.491c0.084,0.007,0.163,0.013,0.237,0.019c0.074,0.005,0.144,0.005,0.208,0.007
			c0.128,0.004,0.236,0.006,0.324,0.01C24.91,39.655,25,39.657,25,39.657L25,39.657z"/>
	</g>
	<g>
		<g>
			<polygon fill="#FFFFFF" points="25,6.184 26.873,22.104 25,25 			"/>
			<g>
				<path d="M24.974,25.087V6.184l0.052-0.003l1.874,15.93l-0.005,0.007L24.974,25.087z M25.026,6.628v18.284l1.821-2.814
					L25.026,6.628z"/>
			</g>
		</g>
		<g>
			<polygon fill="#1B1464" points="25,6.184 23.127,22.104 25,25 			"/>
			<g>
				<polygon fill="#1B1464" points="25,6.184 23.127,22.104 25,25 				"/>
				<path fill="#1B1464" d="M25.026,25.087L23.1,22.11l1.875-15.93l0.052,0.003V25.087z M23.154,22.098l1.82,2.814V6.628
					L23.154,22.098z"/>
			</g>
		</g>
		<g>
			<polygon fill="#FFFFFF" points="6.184,25 22.104,26.873 25,25 			"/>
			<g>
				<path d="M22.11,26.898h-0.009l-15.92-1.873l0.003-0.051h18.904L22.11,26.898z M6.628,25.025l15.469,1.821l2.815-1.821H6.628z"/>
			</g>
		</g>
		<g>
			<polygon fill="#1B1464" points="6.184,25 22.104,23.127 25,25 			"/>
			<g>
				<polygon fill="#1B1464" points="6.184,25 22.104,23.127 25,25 				"/>
				<path fill="#1B1464" d="M25.088,25.025H6.184l-0.003-0.051L22.11,23.1l0.007,0.005L25.088,25.025z M6.628,24.974h18.284
					l-2.815-1.82L6.628,24.974z"/>
			</g>
		</g>
		<g>
			<polygon fill="#FFFFFF" points="25,43.815 23.127,27.896 25,25 			"/>
			<g>
				<path d="M24.974,43.819L23.1,27.891l0.005-0.01l1.921-2.969v18.903L24.974,43.819z M23.154,27.901l1.82,15.471V25.087
					L23.154,27.901z"/>
			</g>
		</g>
		<g>
			<polygon fill="#1B1464" points="25,43.815 26.873,27.896 25,25 			"/>
			<g>
				<polygon fill="#1B1464" points="25,43.815 26.873,27.896 25,25 				"/>
				<path fill="#1B1464" d="M25.026,43.819l-0.052-0.004V24.912l1.925,2.979l-0.001,0.008L25.026,43.819z M25.026,25.087v18.285
					l1.821-15.471L25.026,25.087z"/>
			</g>
		</g>
		<g>
			<polygon fill="#FFFFFF" points="43.816,25 27.896,23.127 25,25 			"/>
			<g>
				<path d="M43.816,25.025H24.912l2.979-1.926l15.929,1.875L43.816,25.025z M25.088,24.974h18.284l-15.47-1.82L25.088,24.974z"/>
			</g>
		</g>
		<g>
			<polygon fill="#1B1464" points="43.816,25 27.896,26.873 25,25 			"/>
			<g>
				<polygon fill="#1B1464" points="43.816,25 27.896,26.873 25,25 				"/>
				<path fill="#1B1464" d="M27.891,26.898l-0.009-0.004l-2.97-1.92h18.904l0.003,0.051L27.891,26.898z M25.088,25.025l2.814,1.821
					l15.47-1.821H25.088z"/>
			</g>
		</g>
		<g>
			<polygon fill="#1B1464" points="18.133,18.254 23.127,22.104 25,25 			"/>
			<g>
				<polygon fill="#1B1464" points="18.133,18.254 23.127,22.104 25,25 				"/>
				<path fill="#1B1464" d="M25.149,25.183l-7.035-6.911l0.033-0.039l4.999,3.853l0.001,0.003L25.149,25.183z M18.46,18.54
					l6.39,6.277l-1.744-2.695L18.46,18.54z"/>
			</g>
		</g>
		<g>
			<polygon fill="#FFFFFF" points="18.133,18.254 22.104,23.127 25,25 			"/>
			<g>
				<path d="M25.2,25.161l-3.117-2.018l-3.972-4.873l0.039-0.035L25.2,25.161z M22.122,23.107l2.677,1.732l-6.349-6.237
					L22.122,23.107z"/>
			</g>
		</g>
		<g>
			<polygon fill="#1B1464" points="18.133,31.745 23.127,27.896 25,25 			"/>
			<g>
				<polygon fill="#1B1464" points="18.133,31.745 23.127,27.896 25,25 				"/>
				<path fill="#1B1464" d="M18.148,31.766l-0.033-0.039l7.035-6.91l-2.006,3.101L18.148,31.766z M24.851,25.183l-6.39,6.277
					l4.646-3.582L24.851,25.183z"/>
			</g>
		</g>
		<g>
			<polygon fill="#FFFFFF" points="18.133,31.745 22.104,26.873 25,25 			"/>
			<g>
				<path d="M18.151,31.764l-0.039-0.033l3.975-4.876l3.114-2.016L18.151,31.764z M22.122,26.893l-3.671,4.504l6.349-6.236
					L22.122,26.893z"/>
			</g>
		</g>
		<g>
			<polygon fill="#1B1464" points="31.746,18.133 27.896,23.127 25,25 			"/>
			<g>
				<polygon fill="#1B1464" points="31.746,18.133 27.896,23.127 25,25 				"/>
				<path fill="#1B1464" d="M24.816,25.149l6.911-7.035l0.039,0.034l-3.852,4.999l-0.005,0.002L24.816,25.149z M31.461,18.46
					l-6.278,6.39l2.696-1.743L31.461,18.46z"/>
			</g>
		</g>
		<g>
			<polygon fill="#FFFFFF" points="31.746,18.133 26.873,22.104 25,25 			"/>
			<g>
				<path d="M24.839,25.2l2.018-3.117l4.874-3.971l0.034,0.039L24.839,25.2z M26.893,22.121l-1.731,2.678l6.236-6.349L26.893,22.121
					z"/>
			</g>
		</g>
		<g>
			<polygon fill="#1B1464" points="31.746,31.867 27.896,26.873 25,25 			"/>
			<g>
				<polygon fill="#1B1464" points="31.746,31.867 27.896,26.873 25,25 				"/>
				<path fill="#1B1464" d="M31.728,31.886l-6.911-7.036l3.101,2.006l3.85,4.994L31.728,31.886z M25.183,25.149l6.278,6.39
					l-3.582-4.647L25.183,25.149z"/>
			</g>
		</g>
		<g>
			<polygon fill="#1B1464" points="31.746,31.867 26.873,27.896 25,25 			"/>
			<g>
				<path fill="#1B1464" d="M31.73,31.886l-4.876-3.973l-2.016-3.114l6.926,7.05L31.73,31.886z M26.893,27.878l4.505,3.671
					L25.161,25.2L26.893,27.878z"/>
			</g>
		</g>
	</g>
	<g>
		<g>
			<g>
				<path fill="#262262" d="M11.708,14.182l0.49,0.705c-0.121-0.387-0.185-0.66-0.192-0.82C12,13.906,12.03,13.783,12.1,13.696
					c0.038-0.046,0.085-0.072,0.141-0.077c0.057-0.005,0.109,0.012,0.158,0.051c0.057,0.047,0.121,0.12,0.193,0.223l0.454,0.65
					c0.052,0.075,0.086,0.119,0.101,0.131c0.013,0.011,0.027,0.016,0.042,0.015c0.015,0,0.026-0.004,0.032-0.013
					c0.008-0.01,0.013-0.028,0.015-0.054c0-0.083-0.015-0.186-0.047-0.31l0.062-0.023c0.054,0.189,0.076,0.343,0.067,0.465
					c-0.008,0.083-0.03,0.146-0.065,0.19c-0.029,0.035-0.062,0.054-0.098,0.058c-0.038,0.003-0.074-0.01-0.109-0.038
					c-0.045-0.037-0.11-0.115-0.194-0.235l-0.434-0.622c-0.054-0.076-0.1-0.13-0.14-0.162c-0.019-0.015-0.039-0.021-0.06-0.018
					s-0.039,0.013-0.054,0.031c-0.021,0.025-0.034,0.065-0.042,0.121c-0.014,0.103-0.002,0.231,0.034,0.384
					c0.037,0.154,0.096,0.334,0.179,0.539c0.044,0.109,0.102,0.216,0.173,0.321l0.176,0.258l-0.171,0.211l-0.673-0.968
					c-0.082-0.116-0.132-0.183-0.153-0.2c-0.022-0.017-0.047-0.023-0.077-0.019c-0.029,0.004-0.053,0.018-0.072,0.042
					c-0.009,0.012-0.023,0.033-0.042,0.065l-0.036,0.06l-0.058-0.032L11.708,14.182z"/>
				<g>
					<path fill="#262262" d="M12.511,15.836l-0.693-0.997c-0.105-0.148-0.138-0.186-0.148-0.194
						c-0.016-0.012-0.034-0.017-0.056-0.013c-0.023,0.003-0.041,0.013-0.056,0.031c-0.008,0.011-0.021,0.031-0.039,0.062
						l-0.05,0.082l-0.102-0.057l0.338-0.618l0.42,0.604c-0.09-0.306-0.138-0.53-0.145-0.669c-0.007-0.167,0.026-0.297,0.1-0.388
						c0.042-0.052,0.095-0.081,0.158-0.087c0.063-0.005,0.122,0.014,0.176,0.058c0.06,0.048,0.125,0.125,0.199,0.228l0.454,0.65
						c0.067,0.096,0.089,0.12,0.096,0.126c0.008,0.006,0.015,0.009,0.023,0.009c0.009,0,0.013-0.001,0.014-0.003
						c0.002-0.003,0.008-0.012,0.009-0.04c0.001-0.078-0.015-0.179-0.046-0.301l-0.005-0.023l0.109-0.04l0.007,0.027
						c0.055,0.19,0.078,0.349,0.068,0.473c-0.008,0.089-0.033,0.159-0.069,0.205c-0.033,0.041-0.072,0.063-0.116,0.067
						c-0.045,0.003-0.087-0.01-0.128-0.043c-0.047-0.038-0.113-0.117-0.199-0.24l-0.433-0.622c-0.053-0.074-0.098-0.127-0.135-0.157
						c-0.014-0.011-0.027-0.016-0.042-0.014c-0.014,0.002-0.026,0.009-0.036,0.021c-0.018,0.021-0.03,0.058-0.037,0.108
						c-0.013,0.099-0.002,0.225,0.034,0.375c0.036,0.152,0.096,0.332,0.177,0.535c0.043,0.107,0.101,0.214,0.17,0.317l0.187,0.274
						L12.511,15.836z M11.626,14.58c0.028,0,0.054,0.008,0.075,0.026c0.015,0.012,0.047,0.046,0.159,0.204l0.654,0.941l0.136-0.17
						l-0.164-0.241c-0.072-0.107-0.131-0.217-0.176-0.327c-0.083-0.206-0.143-0.388-0.18-0.542
						c-0.037-0.156-0.049-0.289-0.036-0.394c0.009-0.062,0.025-0.105,0.049-0.135c0.019-0.022,0.042-0.036,0.069-0.039
						c0.03-0.004,0.056,0.004,0.081,0.024c0.042,0.033,0.089,0.088,0.146,0.168l0.433,0.622c0.083,0.117,0.146,0.194,0.189,0.229
						c0.029,0.023,0.059,0.034,0.09,0.031c0.03-0.002,0.057-0.018,0.081-0.048c0.032-0.039,0.051-0.099,0.06-0.177
						c0.008-0.111-0.011-0.255-0.059-0.427l-0.013,0.004c0.029,0.116,0.043,0.215,0.042,0.294c-0.002,0.033-0.008,0.055-0.021,0.07
						s-0.029,0.022-0.052,0.023l0,0c-0.023,0-0.042-0.007-0.06-0.021c-0.01-0.008-0.033-0.032-0.106-0.136l-0.454-0.65
						c-0.07-0.1-0.133-0.173-0.188-0.217c-0.044-0.035-0.09-0.051-0.139-0.046c-0.049,0.003-0.089,0.026-0.122,0.067
						c-0.065,0.081-0.095,0.2-0.089,0.353c0.006,0.158,0.071,0.432,0.191,0.814l-0.046,0.022l-0.466-0.67l-0.273,0.498l0.013,0.007
						l0.024-0.038c0.019-0.033,0.033-0.055,0.043-0.068c0.023-0.028,0.053-0.045,0.089-0.05C11.612,14.58,11.62,14.58,11.626,14.58z
						"/>
				</g>
			</g>
			<g>
				<path fill="#262262" d="M13.333,12.171l1.133,0.756c-0.059-0.317-0.133-0.593-0.222-0.826c-0.053-0.137-0.101-0.223-0.145-0.258
					c-0.021-0.017-0.043-0.027-0.067-0.031c-0.011-0.002-0.035,0.001-0.072,0.014c-0.037,0.012-0.068,0.017-0.094,0.013
					c-0.026-0.003-0.048-0.013-0.069-0.029c-0.029-0.024-0.045-0.055-0.048-0.092c-0.002-0.038,0.009-0.074,0.037-0.108
					c0.031-0.039,0.072-0.059,0.123-0.062s0.1,0.014,0.147,0.053c0.048,0.039,0.088,0.082,0.12,0.131
					c0.058,0.093,0.118,0.232,0.179,0.417c0.072,0.224,0.132,0.441,0.177,0.652c0.044,0.211,0.073,0.364,0.084,0.457l-0.043,0.053
					l-1.046-0.695l0.503,1.368l-0.049,0.062c-0.405-0.316-0.737-0.55-0.997-0.704c-0.107-0.064-0.191-0.092-0.248-0.084
					c-0.039,0.006-0.079,0.034-0.117,0.081c-0.023,0.028-0.049,0.065-0.078,0.111l-0.051-0.041l0.232-0.48
					c0.204,0.07,0.474,0.228,0.81,0.473c0.129,0.094,0.209,0.152,0.244,0.174l-0.486-1.349L13.333,12.171z"/>
				<g>
					<path fill="#262262" d="M13.985,14.079l-0.021-0.016c-0.402-0.313-0.736-0.55-0.994-0.702c-0.101-0.061-0.179-0.088-0.23-0.08
						c-0.033,0.004-0.067,0.029-0.1,0.071c-0.022,0.026-0.048,0.063-0.076,0.108l-0.017,0.024l-0.089-0.072l0.251-0.519l0.021,0.007
						c0.205,0.071,0.479,0.231,0.817,0.477c0.075,0.055,0.134,0.098,0.176,0.128l-0.464-1.287l0.067-0.082l1.101,0.735
						c-0.057-0.29-0.127-0.545-0.209-0.761c-0.063-0.165-0.108-0.225-0.135-0.247c-0.018-0.015-0.035-0.023-0.055-0.026
						c-0.01-0.001-0.025,0.001-0.061,0.013c-0.041,0.014-0.077,0.019-0.105,0.015c-0.032-0.004-0.059-0.016-0.082-0.035
						c-0.035-0.028-0.055-0.065-0.058-0.111c-0.004-0.044,0.01-0.087,0.042-0.126c0.035-0.044,0.083-0.068,0.141-0.072
						c0.058-0.003,0.113,0.017,0.167,0.059c0.049,0.04,0.091,0.086,0.124,0.137c0.059,0.094,0.12,0.236,0.182,0.421
						c0.072,0.224,0.132,0.445,0.177,0.656s0.074,0.365,0.085,0.459l0.001,0.011l-0.064,0.08l-1-0.665l0.481,1.308L13.985,14.079z
						 M12.757,13.228c0.06,0,0.139,0.029,0.24,0.089c0.255,0.15,0.584,0.383,0.979,0.69L14,13.977l-0.526-1.429l1.093,0.726
						l0.021-0.025c-0.012-0.093-0.04-0.241-0.083-0.443c-0.044-0.209-0.104-0.428-0.176-0.65c-0.06-0.181-0.119-0.319-0.175-0.41
						c-0.031-0.045-0.068-0.087-0.114-0.125c-0.044-0.034-0.085-0.05-0.13-0.047c-0.044,0.002-0.078,0.02-0.104,0.053
						c-0.024,0.028-0.034,0.057-0.031,0.089c0.002,0.031,0.016,0.055,0.039,0.074c0.017,0.013,0.035,0.021,0.056,0.024
						c0.022,0.003,0.05-0.001,0.083-0.012c0.044-0.015,0.07-0.019,0.087-0.014c0.026,0.004,0.053,0.016,0.077,0.036
						c0.047,0.038,0.097,0.125,0.152,0.269c0.089,0.233,0.164,0.513,0.223,0.831l0.011,0.061l-1.165-0.778l-0.019,0.023l0.508,1.407
						l-0.065-0.041c-0.035-0.022-0.115-0.08-0.245-0.175c-0.322-0.234-0.584-0.389-0.783-0.461l-0.212,0.44l0.012,0.01
						c0.024-0.036,0.044-0.064,0.064-0.088c0.042-0.053,0.087-0.083,0.134-0.091C12.742,13.228,12.749,13.228,12.757,13.228z"/>
				</g>
			</g>
		</g>
		<g>
			<g>
				<path fill="#262262" d="M36.499,12.593l-0.747,0.422c0.396-0.084,0.674-0.122,0.834-0.114c0.161,0.008,0.281,0.051,0.36,0.128
					c0.042,0.042,0.064,0.091,0.063,0.147c0,0.056-0.022,0.106-0.065,0.152c-0.052,0.053-0.132,0.11-0.239,0.171l-0.69,0.391
					c-0.08,0.045-0.126,0.075-0.141,0.089c-0.011,0.012-0.018,0.025-0.018,0.04c-0.002,0.014,0.002,0.025,0.01,0.033
					c0.01,0.009,0.026,0.016,0.052,0.021c0.082,0.008,0.187,0.002,0.313-0.019l0.017,0.063c-0.193,0.036-0.349,0.044-0.469,0.023
					c-0.082-0.017-0.145-0.043-0.183-0.083c-0.033-0.031-0.049-0.065-0.049-0.103s0.016-0.073,0.048-0.105
					c0.04-0.042,0.124-0.099,0.252-0.171l0.66-0.374c0.079-0.047,0.138-0.088,0.174-0.125c0.016-0.017,0.025-0.036,0.023-0.058
					c0-0.021-0.01-0.04-0.024-0.056c-0.023-0.022-0.062-0.041-0.117-0.054c-0.102-0.023-0.229-0.024-0.387-0.002
					c-0.156,0.022-0.341,0.064-0.553,0.127c-0.113,0.034-0.225,0.082-0.336,0.143l-0.273,0.151l-0.195-0.19l1.028-0.58
					c0.123-0.07,0.193-0.115,0.213-0.134c0.018-0.019,0.027-0.043,0.026-0.073c-0.002-0.03-0.014-0.055-0.034-0.076
					c-0.012-0.011-0.031-0.026-0.062-0.047l-0.057-0.042l0.038-0.054L36.499,12.593z"/>
				<g>
					<path fill="#262262" d="M35.926,14.179c-0.055,0-0.105-0.004-0.15-0.011c-0.088-0.017-0.154-0.047-0.197-0.089
						c-0.037-0.037-0.056-0.078-0.056-0.122s0.018-0.086,0.054-0.123c0.042-0.044,0.128-0.102,0.259-0.176l0.659-0.374
						c0.078-0.045,0.136-0.085,0.168-0.12c0.013-0.012,0.018-0.024,0.016-0.039c0-0.016-0.005-0.028-0.016-0.039
						c-0.02-0.02-0.056-0.035-0.104-0.047c-0.097-0.022-0.224-0.022-0.376-0.001c-0.155,0.021-0.34,0.064-0.549,0.126
						c-0.11,0.034-0.223,0.081-0.332,0.14l-0.29,0.161l-0.234-0.228l1.059-0.596c0.157-0.09,0.197-0.12,0.206-0.13
						c0.014-0.015,0.021-0.032,0.02-0.055c-0.002-0.023-0.01-0.042-0.025-0.058c-0.011-0.01-0.031-0.024-0.06-0.044l-0.076-0.058
						l0.065-0.096l0.584,0.396l-0.641,0.361c0.313-0.062,0.541-0.089,0.68-0.082c0.167,0.008,0.293,0.054,0.377,0.135
						c0.047,0.047,0.072,0.103,0.071,0.166s-0.025,0.12-0.073,0.17c-0.053,0.054-0.136,0.113-0.245,0.175l-0.69,0.392
						c-0.104,0.06-0.129,0.079-0.135,0.084c-0.007,0.007-0.01,0.015-0.01,0.023c-0.001,0.008,0,0.012,0.001,0.013
						c0.003,0.002,0.011,0.009,0.039,0.014c0.075,0.007,0.181,0.001,0.305-0.019l0.023-0.004l0.028,0.113l-0.026,0.005
						C36.129,14.167,36.02,14.179,35.926,14.179z M36.386,12.97c0.07,0,0.13,0.006,0.184,0.018c0.059,0.014,0.103,0.034,0.128,0.061
						c0.021,0.021,0.034,0.045,0.034,0.074c0.001,0.029-0.01,0.055-0.032,0.078c-0.037,0.038-0.096,0.081-0.18,0.128l-0.659,0.374
						c-0.125,0.072-0.208,0.128-0.246,0.167c-0.027,0.027-0.04,0.056-0.04,0.087c0,0.03,0.013,0.058,0.04,0.084
						c0.036,0.035,0.093,0.06,0.17,0.075c0.108,0.019,0.255,0.014,0.431-0.018l-0.003-0.014c-0.118,0.018-0.217,0.023-0.296,0.015
						c-0.032-0.005-0.055-0.014-0.068-0.028c-0.013-0.013-0.02-0.031-0.018-0.053c0.002-0.021,0.01-0.041,0.026-0.057
						c0.01-0.01,0.034-0.031,0.145-0.094l0.69-0.391c0.105-0.06,0.185-0.116,0.233-0.167c0.04-0.041,0.06-0.084,0.06-0.134
						c0-0.049-0.019-0.091-0.057-0.128c-0.074-0.072-0.189-0.113-0.343-0.121c-0.158-0.007-0.437,0.031-0.827,0.114l-0.019-0.048
						l0.711-0.401l-0.472-0.319l-0.008,0.013l0.036,0.027c0.03,0.021,0.052,0.038,0.064,0.049c0.025,0.026,0.039,0.057,0.041,0.094
						c0.001,0.037-0.01,0.068-0.034,0.093c-0.013,0.014-0.05,0.043-0.218,0.139l-0.997,0.562l0.155,0.153l0.257-0.142
						c0.112-0.061,0.228-0.11,0.341-0.145c0.213-0.063,0.401-0.106,0.558-0.128C36.251,12.976,36.323,12.97,36.386,12.97z"/>
				</g>
			</g>
			<g>
				<path fill="#262262" d="M36.886,14.307c-0.047,0.038-0.084,0.07-0.112,0.099c-0.075,0.077-0.111,0.169-0.11,0.276
					s0.04,0.199,0.119,0.275c0.062,0.061,0.135,0.106,0.218,0.136c0.082,0.03,0.222,0.057,0.419,0.08l-0.01,0.063
					c-0.402,0.003-0.696-0.086-0.881-0.267c-0.126-0.122-0.181-0.254-0.167-0.396c0.013-0.141,0.065-0.26,0.16-0.355
					c0.125-0.128,0.292-0.222,0.503-0.278c0.211-0.057,0.413-0.064,0.605-0.023c0.192,0.042,0.353,0.125,0.48,0.249
					c0.092,0.089,0.141,0.174,0.147,0.254c0.008,0.081-0.013,0.146-0.062,0.197c-0.071,0.072-0.165,0.112-0.286,0.122
					c-0.159,0.013-0.337-0.026-0.534-0.115C37.245,14.563,37.081,14.458,36.886,14.307z M36.958,14.252
					c0.142,0.11,0.271,0.186,0.386,0.229c0.152,0.057,0.287,0.078,0.404,0.063c0.117-0.014,0.206-0.051,0.264-0.111
					c0.035-0.036,0.053-0.076,0.051-0.121c-0.002-0.045-0.022-0.088-0.065-0.129c-0.087-0.086-0.226-0.13-0.415-0.133
					C37.393,14.048,37.185,14.115,36.958,14.252z"/>
				<g>
					<path fill="#262262" d="M37.393,15.263c-0.398,0-0.695-0.092-0.882-0.275c-0.13-0.127-0.189-0.268-0.176-0.417
						c0.014-0.146,0.071-0.271,0.167-0.371c0.129-0.131,0.302-0.228,0.517-0.286c0.213-0.058,0.421-0.065,0.616-0.023
						c0.197,0.042,0.363,0.128,0.494,0.256c0.095,0.093,0.147,0.184,0.155,0.271c0.008,0.088-0.016,0.161-0.07,0.216
						c-0.074,0.076-0.177,0.121-0.303,0.13c-0.163,0.013-0.346-0.027-0.547-0.118c-0.128-0.057-0.289-0.16-0.479-0.305
						c-0.038,0.032-0.07,0.06-0.093,0.083c-0.071,0.073-0.104,0.157-0.104,0.258c0,0.101,0.037,0.185,0.111,0.256
						c0.059,0.059,0.129,0.103,0.207,0.131c0.081,0.03,0.219,0.056,0.414,0.079l0.026,0.002l-0.016,0.112L37.393,15.263z
						 M37.382,13.916c-0.113,0-0.23,0.017-0.35,0.049c-0.206,0.056-0.371,0.147-0.493,0.272c-0.088,0.09-0.14,0.205-0.152,0.339
						c-0.013,0.133,0.04,0.259,0.161,0.375c0.175,0.172,0.458,0.259,0.84,0.26l0.002-0.015c-0.184-0.022-0.319-0.049-0.399-0.078
						c-0.085-0.032-0.162-0.08-0.226-0.143c-0.083-0.081-0.126-0.18-0.127-0.293c-0.002-0.113,0.038-0.212,0.118-0.294
						c0.028-0.029,0.066-0.063,0.113-0.101l0.017-0.013l0.016,0.013c0.194,0.149,0.356,0.254,0.485,0.312
						c0.192,0.087,0.367,0.125,0.521,0.113c0.113-0.009,0.204-0.048,0.27-0.114c0.044-0.045,0.062-0.103,0.055-0.176
						c-0.005-0.074-0.053-0.154-0.139-0.238c-0.124-0.12-0.281-0.202-0.468-0.243C37.545,13.925,37.463,13.916,37.382,13.916z
						 M37.675,14.575L37.675,14.575c-0.103,0-0.216-0.023-0.34-0.069c-0.117-0.044-0.249-0.123-0.392-0.233l-0.031-0.023l0.033-0.02
						c0.224-0.136,0.434-0.206,0.624-0.206h0.013c0.196,0.003,0.342,0.05,0.435,0.141c0.046,0.046,0.069,0.095,0.072,0.147
						c0.001,0.051-0.02,0.099-0.059,0.139c-0.062,0.064-0.156,0.104-0.279,0.119C37.728,14.573,37.701,14.575,37.675,14.575z
						 M37.005,14.255c0.128,0.096,0.244,0.163,0.348,0.202c0.118,0.044,0.227,0.066,0.322,0.066l0,0c0.024,0,0.048-0.002,0.07-0.004
						c0.11-0.013,0.194-0.048,0.248-0.104c0.03-0.03,0.044-0.063,0.042-0.102c0-0.039-0.019-0.075-0.056-0.111
						c-0.082-0.081-0.217-0.123-0.397-0.125l-0.013,0C37.397,14.077,37.208,14.137,37.005,14.255z"/>
				</g>
			</g>
		</g>
		<g>
			<g>
				<path fill="#262262" d="M13.432,37.388l0.485-0.295l0.045,0.05c-0.115,0.113-0.178,0.217-0.19,0.313
					c-0.011,0.097,0.015,0.178,0.078,0.246c0.049,0.054,0.104,0.084,0.164,0.09c0.06,0.005,0.11-0.014,0.154-0.053
					c0.028-0.025,0.05-0.057,0.065-0.094c0.016-0.039,0.027-0.101,0.034-0.189c0.021-0.231,0.048-0.394,0.081-0.484
					c0.032-0.093,0.078-0.165,0.134-0.217c0.093-0.085,0.21-0.122,0.353-0.111c0.141,0.012,0.265,0.076,0.373,0.193
					c0.059,0.062,0.112,0.15,0.16,0.261c0.016,0.039,0.03,0.067,0.045,0.084c0.036,0.041,0.084,0.052,0.146,0.035l0.043,0.048
					l-0.506,0.315l-0.045-0.05c0.132-0.13,0.202-0.245,0.21-0.347c0.009-0.101-0.027-0.196-0.107-0.284
					c-0.062-0.066-0.13-0.104-0.204-0.109c-0.074-0.005-0.138,0.017-0.194,0.069c-0.035,0.031-0.062,0.07-0.08,0.112
					c-0.029,0.074-0.055,0.193-0.076,0.36c-0.021,0.165-0.044,0.281-0.07,0.347c-0.027,0.066-0.063,0.12-0.111,0.165
					c-0.086,0.077-0.187,0.113-0.305,0.105c-0.117-0.008-0.221-0.062-0.312-0.159c-0.026-0.03-0.047-0.058-0.064-0.084
					c-0.008-0.015-0.024-0.054-0.049-0.114c-0.025-0.062-0.044-0.101-0.059-0.117c-0.035-0.037-0.084-0.05-0.151-0.037
					L13.432,37.388z"/>
				<g>
					<path fill="#262262" d="M14.145,37.977c-0.011,0-0.022,0-0.033-0.001c-0.125-0.01-0.235-0.065-0.329-0.169
						c-0.027-0.028-0.05-0.058-0.068-0.088c-0.009-0.018-0.026-0.057-0.051-0.118c-0.032-0.076-0.047-0.101-0.055-0.107
						c-0.028-0.031-0.07-0.041-0.126-0.03l-0.015,0.002l-0.077-0.083l0.53-0.322l0.077,0.083l-0.018,0.017
						c-0.11,0.109-0.171,0.212-0.183,0.301c-0.01,0.089,0.013,0.161,0.07,0.226c0.045,0.049,0.094,0.074,0.147,0.08
						c0.052,0.004,0.097-0.01,0.135-0.045c0.025-0.023,0.045-0.052,0.059-0.087c0.015-0.035,0.025-0.097,0.032-0.18
						c0.022-0.235,0.048-0.396,0.083-0.491c0.033-0.095,0.082-0.173,0.142-0.229c0.097-0.089,0.222-0.128,0.37-0.116
						c0.148,0.013,0.28,0.079,0.391,0.2c0.06,0.066,0.116,0.157,0.164,0.271c0.014,0.035,0.028,0.062,0.041,0.074
						c0.03,0.033,0.068,0.043,0.119,0.029l0.015-0.005l0.077,0.083l-0.551,0.343l-0.078-0.083l0.019-0.019
						c0.127-0.124,0.195-0.235,0.203-0.33S15.21,37,15.133,36.916c-0.058-0.061-0.119-0.094-0.187-0.1
						c-0.066-0.006-0.124,0.015-0.174,0.062c-0.031,0.029-0.056,0.064-0.073,0.104c-0.028,0.07-0.053,0.19-0.074,0.354
						c-0.021,0.169-0.045,0.286-0.072,0.353c-0.028,0.07-0.067,0.128-0.118,0.175C14.354,37.938,14.255,37.977,14.145,37.977z
						 M13.523,37.408c0.052,0,0.094,0.017,0.125,0.05c0.01,0.011,0.029,0.037,0.064,0.124c0.031,0.074,0.043,0.102,0.047,0.111
						c0.016,0.024,0.036,0.052,0.062,0.078c0.085,0.094,0.184,0.145,0.293,0.151c0.111,0.008,0.205-0.025,0.286-0.1
						c0.044-0.041,0.08-0.093,0.104-0.154c0.025-0.062,0.049-0.178,0.069-0.341c0.021-0.167,0.048-0.291,0.078-0.367
						c0.021-0.046,0.048-0.087,0.086-0.122c0.061-0.054,0.133-0.08,0.213-0.074c0.081,0.005,0.155,0.044,0.221,0.116
						c0.086,0.093,0.125,0.197,0.115,0.307c-0.008,0.102-0.076,0.219-0.201,0.345l0.015,0.015l0.46-0.287l-0.012-0.014
						c-0.063,0.014-0.115-0.003-0.156-0.046c-0.017-0.019-0.034-0.05-0.05-0.091c-0.045-0.107-0.097-0.194-0.154-0.256
						c-0.103-0.109-0.223-0.173-0.357-0.184c-0.132-0.012-0.245,0.024-0.332,0.104c-0.053,0.05-0.096,0.121-0.127,0.208
						c-0.031,0.089-0.059,0.25-0.08,0.477c-0.007,0.091-0.019,0.155-0.035,0.196s-0.041,0.076-0.072,0.105
						c-0.048,0.045-0.107,0.063-0.174,0.058c-0.066-0.006-0.127-0.039-0.181-0.097c-0.068-0.074-0.097-0.165-0.084-0.267
						c0.012-0.097,0.072-0.202,0.18-0.313l-0.014-0.017l-0.439,0.271l0.015,0.015C13.5,37.408,13.512,37.408,13.523,37.408z"/>
				</g>
			</g>
			<g>
				<path fill="#262262" d="M12.315,36.173l0.916-1.011c-0.323,0.014-0.606,0.045-0.85,0.099c-0.144,0.031-0.236,0.066-0.276,0.104
					c-0.02,0.019-0.033,0.039-0.041,0.062c-0.005,0.011-0.004,0.035,0.002,0.074c0.008,0.039,0.008,0.07,0,0.097
					c-0.007,0.023-0.021,0.044-0.039,0.062c-0.028,0.024-0.061,0.037-0.098,0.033c-0.038-0.003-0.073-0.021-0.102-0.052
					c-0.033-0.037-0.047-0.079-0.044-0.13c0.005-0.052,0.03-0.098,0.074-0.139c0.046-0.041,0.095-0.074,0.148-0.099
					c0.1-0.044,0.246-0.083,0.437-0.114c0.233-0.041,0.457-0.067,0.672-0.08c0.215-0.013,0.37-0.019,0.463-0.015l0.046,0.048
					l-0.843,0.933l1.428-0.295l0.053,0.058c-0.372,0.354-0.652,0.649-0.842,0.881c-0.08,0.099-0.12,0.176-0.12,0.233
					c0,0.039,0.021,0.082,0.063,0.128c0.024,0.026,0.057,0.058,0.097,0.093l-0.047,0.045l-0.441-0.301
					c0.1-0.191,0.296-0.436,0.588-0.732c0.111-0.113,0.181-0.184,0.208-0.215l-1.406,0.281L12.315,36.173z"/>
				<g>
					<path fill="#262262" d="M13.415,37.219l-0.477-0.322l0.01-0.022c0.1-0.191,0.299-0.439,0.592-0.738
						c0.066-0.064,0.117-0.117,0.153-0.155l-1.343,0.271l-0.071-0.078l0.89-0.982c-0.295,0.015-0.558,0.046-0.784,0.097
						c-0.172,0.036-0.239,0.073-0.264,0.098c-0.017,0.015-0.028,0.031-0.034,0.05c-0.001,0.004-0.003,0.016,0.005,0.062
						c0.007,0.043,0.007,0.078-0.002,0.105c-0.008,0.032-0.024,0.056-0.046,0.076c-0.033,0.031-0.072,0.045-0.118,0.041
						s-0.084-0.022-0.119-0.06c-0.038-0.043-0.055-0.093-0.051-0.15c0.006-0.059,0.034-0.111,0.083-0.155
						c0.047-0.045,0.099-0.078,0.155-0.104c0.102-0.045,0.251-0.084,0.443-0.117c0.233-0.039,0.46-0.066,0.675-0.08
						c0.215-0.013,0.372-0.019,0.466-0.015h0.011l0.069,0.074l-0.806,0.89l1.365-0.281l0.081,0.089l-0.019,0.017
						c-0.37,0.353-0.653,0.649-0.842,0.879c-0.075,0.093-0.113,0.165-0.113,0.217c0,0.033,0.02,0.07,0.056,0.109
						c0.023,0.026,0.056,0.056,0.096,0.091l0.021,0.021L13.415,37.219z M13.006,36.878l0.404,0.274l0.011-0.01
						c-0.031-0.027-0.057-0.054-0.078-0.076c-0.045-0.048-0.07-0.098-0.07-0.145c0-0.064,0.042-0.146,0.126-0.25
						c0.186-0.229,0.464-0.52,0.827-0.864L14.2,35.778l-1.491,0.31l0.88-0.976l-0.022-0.024c-0.094-0.002-0.246,0.004-0.45,0.017
						c-0.213,0.014-0.438,0.039-0.669,0.08c-0.188,0.031-0.334,0.07-0.431,0.113c-0.05,0.022-0.097,0.054-0.14,0.093
						c-0.04,0.037-0.063,0.078-0.065,0.122c-0.004,0.043,0.008,0.08,0.037,0.111c0.024,0.026,0.052,0.041,0.083,0.043
						c0.031,0.002,0.057-0.006,0.079-0.028c0.015-0.013,0.026-0.029,0.032-0.05c0.006-0.022,0.006-0.05,0-0.085
						c-0.011-0.056-0.006-0.076-0.002-0.088c0.008-0.023,0.024-0.05,0.047-0.07c0.044-0.04,0.138-0.077,0.288-0.111
						c0.245-0.054,0.532-0.085,0.854-0.098l0.062-0.002l-0.941,1.038l0.02,0.021l1.467-0.295l-0.049,0.058
						c-0.028,0.031-0.096,0.102-0.209,0.217C13.299,36.457,13.107,36.694,13.006,36.878z"/>
				</g>
			</g>
		</g>
		<g>
			<g>
				<path fill="#262262" d="M36.914,37.05l-0.316-0.473l0.048-0.047c0.118,0.11,0.226,0.169,0.323,0.177
					c0.095,0.007,0.177-0.022,0.241-0.087c0.052-0.053,0.079-0.109,0.083-0.169c0.003-0.06-0.017-0.111-0.059-0.152
					c-0.027-0.025-0.061-0.048-0.099-0.061c-0.038-0.014-0.101-0.022-0.188-0.026c-0.232-0.011-0.395-0.031-0.488-0.06
					c-0.094-0.029-0.167-0.07-0.222-0.126c-0.089-0.089-0.13-0.204-0.126-0.347c0.005-0.141,0.064-0.269,0.178-0.382
					c0.061-0.062,0.146-0.119,0.256-0.169c0.038-0.017,0.064-0.033,0.08-0.05c0.038-0.037,0.049-0.087,0.03-0.145l0.045-0.047
					l0.337,0.491l-0.049,0.049c-0.133-0.126-0.252-0.191-0.354-0.196c-0.104-0.006-0.196,0.035-0.282,0.12
					c-0.063,0.063-0.098,0.134-0.099,0.208c-0.003,0.074,0.022,0.137,0.075,0.19c0.034,0.033,0.073,0.06,0.116,0.074
					c0.076,0.026,0.195,0.047,0.363,0.062c0.166,0.015,0.284,0.033,0.351,0.056c0.066,0.023,0.122,0.059,0.167,0.105
					c0.083,0.081,0.123,0.182,0.119,0.301c-0.002,0.116-0.051,0.222-0.146,0.316c-0.027,0.026-0.054,0.05-0.08,0.068
					c-0.014,0.008-0.052,0.026-0.112,0.055c-0.062,0.025-0.1,0.048-0.113,0.062c-0.036,0.035-0.047,0.087-0.032,0.152L36.914,37.05z
					"/>
				<g>
					<path fill="#262262" d="M36.909,37.089l-0.346-0.516l0.081-0.079l0.018,0.017c0.114,0.107,0.218,0.163,0.307,0.17
						c0.091,0.008,0.163-0.019,0.224-0.079c0.047-0.049,0.071-0.099,0.074-0.15c0.002-0.054-0.015-0.097-0.05-0.132
						c-0.025-0.026-0.056-0.045-0.09-0.058s-0.096-0.021-0.181-0.023c-0.233-0.012-0.398-0.032-0.494-0.062
						c-0.097-0.03-0.176-0.074-0.232-0.132c-0.095-0.095-0.14-0.217-0.133-0.367c0.005-0.148,0.066-0.281,0.185-0.398
						c0.062-0.063,0.15-0.12,0.262-0.175c0.036-0.015,0.061-0.029,0.074-0.044c0.031-0.029,0.038-0.068,0.022-0.119l-0.006-0.015
						l0.079-0.079l0.367,0.535l-0.081,0.082l-0.019-0.019c-0.129-0.121-0.243-0.184-0.338-0.189
						c-0.094-0.006-0.182,0.033-0.261,0.111c-0.061,0.062-0.091,0.124-0.093,0.191c-0.002,0.066,0.021,0.124,0.068,0.172
						c0.031,0.03,0.067,0.054,0.108,0.068c0.071,0.026,0.19,0.047,0.354,0.06c0.171,0.015,0.287,0.035,0.357,0.058
						c0.069,0.024,0.13,0.062,0.178,0.109c0.087,0.089,0.13,0.196,0.126,0.321c-0.003,0.124-0.055,0.235-0.154,0.335
						c-0.029,0.028-0.057,0.052-0.084,0.072c-0.017,0.008-0.055,0.026-0.117,0.054c-0.074,0.035-0.098,0.052-0.105,0.06
						c-0.029,0.029-0.037,0.07-0.024,0.128l0.002,0.015L36.909,37.089z M36.632,36.581l0.285,0.428l0.016-0.015
						c-0.012-0.068,0.002-0.124,0.041-0.163c0.013-0.011,0.036-0.029,0.122-0.068c0.06-0.028,0.096-0.045,0.11-0.054
						c0.022-0.015,0.049-0.037,0.075-0.063c0.09-0.089,0.136-0.188,0.139-0.3c0.004-0.111-0.033-0.204-0.111-0.282
						c-0.042-0.043-0.096-0.074-0.158-0.097c-0.064-0.021-0.181-0.04-0.344-0.056c-0.168-0.015-0.294-0.035-0.369-0.062
						c-0.048-0.017-0.09-0.045-0.127-0.082c-0.058-0.058-0.086-0.128-0.083-0.209c0.002-0.08,0.038-0.156,0.107-0.227
						c0.09-0.089,0.19-0.132,0.301-0.126c0.104,0.006,0.221,0.066,0.352,0.186l0.016-0.013l-0.307-0.449l-0.013,0.011
						c0.015,0.063,0.002,0.117-0.04,0.158c-0.019,0.019-0.047,0.037-0.088,0.056c-0.106,0.05-0.19,0.105-0.248,0.163
						c-0.107,0.107-0.165,0.229-0.169,0.363c-0.006,0.134,0.034,0.245,0.117,0.328c0.052,0.052,0.122,0.091,0.212,0.119
						c0.091,0.027,0.252,0.048,0.481,0.059c0.091,0.004,0.155,0.014,0.196,0.028s0.078,0.037,0.108,0.068
						c0.045,0.047,0.067,0.104,0.064,0.171c-0.002,0.066-0.033,0.13-0.089,0.184c-0.071,0.072-0.159,0.104-0.264,0.096
						c-0.097-0.009-0.204-0.062-0.319-0.166L36.632,36.581z"/>
				</g>
			</g>
			<g>
				<path fill="#262262" d="M35.854,36.753c-0.037-0.048-0.068-0.085-0.096-0.112c-0.075-0.076-0.168-0.115-0.274-0.115
					s-0.198,0.039-0.277,0.116c-0.061,0.062-0.107,0.134-0.14,0.216c-0.03,0.081-0.058,0.221-0.085,0.417l-0.062-0.008
					c0.002-0.404,0.095-0.697,0.278-0.879c0.124-0.124,0.256-0.178,0.398-0.163c0.142,0.015,0.258,0.07,0.353,0.165
					c0.127,0.126,0.217,0.297,0.272,0.508c0.054,0.212,0.06,0.412,0.016,0.604c-0.045,0.193-0.129,0.353-0.255,0.479
					c-0.092,0.089-0.177,0.138-0.257,0.143c-0.08,0.008-0.146-0.015-0.195-0.064c-0.07-0.07-0.11-0.167-0.118-0.287
					c-0.011-0.16,0.029-0.336,0.122-0.532C35.596,37.109,35.702,36.946,35.854,36.753z M35.909,36.825
					c-0.11,0.144-0.188,0.27-0.233,0.384c-0.06,0.15-0.082,0.286-0.068,0.402c0.013,0.119,0.047,0.208,0.107,0.268
					c0.035,0.033,0.075,0.052,0.12,0.052c0.045-0.002,0.089-0.022,0.129-0.063c0.087-0.087,0.133-0.226,0.139-0.415
					S36.044,37.056,35.909,36.825z"/>
				<g>
					<path fill="#262262" d="M35.699,38.149c-0.075,0-0.138-0.022-0.188-0.072c-0.075-0.074-0.118-0.178-0.126-0.304
						c-0.011-0.164,0.03-0.347,0.125-0.546c0.06-0.128,0.164-0.287,0.312-0.475c-0.031-0.039-0.059-0.07-0.082-0.095
						c-0.071-0.072-0.156-0.107-0.256-0.107c-0.101,0-0.186,0.035-0.259,0.109c-0.059,0.058-0.104,0.127-0.133,0.204
						c-0.03,0.082-0.059,0.221-0.083,0.416l-0.004,0.025l-0.112-0.019v-0.022c0.002-0.405,0.099-0.708,0.286-0.896
						c0.13-0.13,0.271-0.187,0.419-0.17c0.146,0.015,0.272,0.074,0.37,0.172c0.129,0.13,0.223,0.305,0.278,0.52
						c0.055,0.215,0.061,0.423,0.016,0.617c-0.046,0.196-0.134,0.361-0.263,0.489c-0.095,0.095-0.186,0.146-0.272,0.152
						C35.718,38.149,35.709,38.149,35.699,38.149z M35.484,36.499c0.113,0,0.212,0.041,0.293,0.123
						c0.027,0.027,0.061,0.066,0.099,0.114l0.013,0.019l-0.013,0.015c-0.151,0.191-0.26,0.353-0.317,0.48
						c-0.091,0.191-0.131,0.365-0.122,0.52c0.009,0.113,0.047,0.204,0.112,0.271c0.045,0.045,0.103,0.063,0.176,0.058
						c0.074-0.006,0.153-0.052,0.239-0.138c0.121-0.12,0.205-0.276,0.248-0.463c0.043-0.188,0.037-0.388-0.015-0.594
						c-0.055-0.206-0.143-0.373-0.266-0.495c-0.091-0.089-0.204-0.143-0.338-0.157c-0.133-0.015-0.259,0.037-0.378,0.155
						c-0.174,0.175-0.264,0.454-0.27,0.838h0.015c0.025-0.184,0.052-0.316,0.083-0.396c0.032-0.085,0.081-0.161,0.146-0.225
						C35.271,36.54,35.369,36.499,35.484,36.499z M35.835,37.957c-0.053,0-0.099-0.021-0.139-0.062
						c-0.062-0.063-0.103-0.158-0.116-0.28c-0.013-0.122,0.012-0.262,0.072-0.415c0.044-0.117,0.124-0.249,0.237-0.39l0.023-0.029
						l0.019,0.031c0.136,0.231,0.202,0.447,0.196,0.642c-0.004,0.194-0.055,0.339-0.146,0.43
						C35.937,37.931,35.887,37.955,35.835,37.957L35.835,37.957z M35.907,36.872C35.81,37,35.74,37.115,35.699,37.219
						c-0.057,0.146-0.078,0.278-0.065,0.391c0.01,0.111,0.044,0.195,0.1,0.249c0.029,0.031,0.062,0.046,0.101,0.046
						c0.039-0.002,0.075-0.021,0.112-0.057c0.081-0.08,0.126-0.214,0.13-0.397C36.082,37.276,36.024,37.083,35.907,36.872z"/>
				</g>
			</g>
		</g>
	</g>
	<g>
		<g>
			<g>
				<path fill="#1B1464" d="M24.917,1.708l1.13,2.87l0.614-2.143c0.049-0.177,0.073-0.313,0.073-0.409
					c0-0.067-0.023-0.12-0.069-0.158c-0.048-0.038-0.135-0.057-0.262-0.057c-0.023,0-0.045-0.001-0.067-0.003l0.03-0.101h1.177
					L27.51,1.808c-0.123-0.002-0.214,0.01-0.271,0.037c-0.085,0.038-0.147,0.086-0.191,0.147c-0.055,0.085-0.113,0.233-0.174,0.443
					l-0.861,3.018h-0.098l-1.218-3.088l-0.65,2.28C24,4.82,23.976,4.953,23.976,5.044c0,0.067,0.021,0.119,0.065,0.154
					c0.044,0.036,0.148,0.059,0.313,0.071L24.328,5.37h-1.151l0.037-0.101c0.146-0.003,0.243-0.015,0.291-0.037
					c0.074-0.034,0.129-0.076,0.165-0.127c0.051-0.079,0.109-0.232,0.174-0.459L24.569,2.1c-0.068-0.107-0.144-0.181-0.224-0.221
					c-0.081-0.041-0.205-0.063-0.373-0.07l0.031-0.101H24.917z"/>
				<g>
					<path fill="#1B1464" d="M26.032,5.479h-0.136L25.89,5.463l-1.189-3.017l-0.629,2.206c-0.046,0.171-0.07,0.303-0.07,0.392
						c0,0.06,0.019,0.104,0.056,0.134c0.027,0.022,0.101,0.051,0.299,0.064l0.032,0.002l-0.041,0.15H23.14l0.056-0.153h0.019
						c0.14-0.002,0.235-0.014,0.281-0.034c0.069-0.032,0.12-0.072,0.154-0.119c0.049-0.075,0.106-0.227,0.17-0.452l0.72-2.534
						c-0.064-0.098-0.133-0.166-0.208-0.202c-0.076-0.039-0.198-0.061-0.361-0.067l-0.034-0.001l0.045-0.152h0.953l1.109,2.815
						l0.592-2.068c0.049-0.174,0.073-0.309,0.073-0.402c0-0.06-0.021-0.104-0.062-0.138c-0.042-0.034-0.124-0.051-0.244-0.051
						c-0.023,0-0.047-0.001-0.07-0.003l-0.031-0.003l0.044-0.149h1.233l-0.051,0.153l-0.047,0c-0.104,0-0.184,0.011-0.233,0.035
						c-0.081,0.036-0.141,0.083-0.18,0.139c-0.054,0.082-0.112,0.228-0.172,0.435L26.032,5.479z M25.932,5.427h0.06l0.856-2.999
						c0.062-0.215,0.12-0.362,0.178-0.45c0.046-0.064,0.114-0.117,0.203-0.157c0.057-0.027,0.14-0.04,0.254-0.04h0.01l0.016-0.048
						h-1.122L26.37,1.785c0.011,0,0.023,0.001,0.034,0.001c0.134,0,0.226,0.021,0.277,0.062c0.053,0.043,0.08,0.104,0.08,0.178
						c0,0.099-0.024,0.235-0.075,0.416l-0.635,2.217L24.9,1.733h-0.878l-0.015,0.05c0.156,0.009,0.27,0.032,0.349,0.071
						c0.083,0.042,0.163,0.12,0.235,0.23l0.006,0.01L23.87,4.652c-0.067,0.233-0.125,0.386-0.178,0.467
						c-0.039,0.055-0.097,0.102-0.175,0.137c-0.051,0.023-0.144,0.035-0.284,0.039l-0.018,0.049h1.092l0.014-0.051
						c-0.155-0.012-0.251-0.036-0.296-0.074c-0.05-0.041-0.075-0.099-0.075-0.174c0-0.093,0.023-0.229,0.071-0.406l0.672-2.354
						L25.932,5.427z"/>
				</g>
			</g>
		</g>
		<g>
			<path fill="#1B1464" d="M23.898,48.291l0.302-1.356h0.094c-0.014,0.131-0.021,0.24-0.021,0.324c0,0.248,0.079,0.45,0.237,0.604
				c0.157,0.153,0.364,0.231,0.619,0.231c0.234,0,0.413-0.072,0.535-0.217c0.122-0.145,0.182-0.312,0.182-0.501
				c0-0.124-0.026-0.235-0.08-0.337c-0.085-0.148-0.312-0.412-0.681-0.786c-0.176-0.18-0.291-0.313-0.342-0.402
				c-0.083-0.146-0.123-0.299-0.123-0.46c0-0.254,0.094-0.475,0.286-0.654c0.191-0.184,0.435-0.274,0.732-0.274
				c0.103,0,0.199,0.009,0.289,0.029c0.056,0.012,0.158,0.049,0.305,0.111c0.103,0.041,0.16,0.063,0.172,0.066
				c0.026,0.006,0.054,0.008,0.083,0.008c0.055,0,0.099-0.013,0.136-0.041c0.037-0.027,0.082-0.085,0.133-0.174h0.104l-0.282,1.216
				h-0.093c0.009-0.109,0.013-0.196,0.013-0.261c0-0.219-0.071-0.397-0.216-0.536c-0.145-0.14-0.335-0.208-0.572-0.208
				c-0.185,0-0.336,0.056-0.454,0.165s-0.176,0.237-0.176,0.38c0,0.127,0.038,0.247,0.112,0.36c0.075,0.113,0.248,0.3,0.518,0.558
				c0.269,0.26,0.442,0.46,0.521,0.606c0.078,0.145,0.116,0.301,0.116,0.464c0,0.184-0.048,0.363-0.146,0.539
				c-0.097,0.175-0.238,0.308-0.422,0.402c-0.185,0.097-0.385,0.143-0.602,0.143c-0.108,0-0.208-0.009-0.301-0.029
				c-0.095-0.021-0.244-0.068-0.45-0.143c-0.07-0.028-0.128-0.043-0.174-0.043c-0.107,0-0.19,0.072-0.249,0.215H23.898z"/>
			<g>
				<path fill="#1B1464" d="M25.176,48.319c-0.108,0-0.212-0.012-0.307-0.031c-0.095-0.021-0.248-0.069-0.453-0.146
					c-0.067-0.024-0.122-0.037-0.165-0.037c-0.097,0-0.17,0.064-0.225,0.196l-0.006,0.019h-0.154l0.313-1.411h0.143l-0.002,0.028
					c-0.014,0.129-0.02,0.238-0.02,0.322c0,0.241,0.077,0.438,0.228,0.586c0.152,0.148,0.354,0.225,0.602,0.225
					c0.225,0,0.398-0.071,0.515-0.208c0.118-0.139,0.176-0.303,0.176-0.484c0-0.118-0.026-0.228-0.077-0.324
					c-0.083-0.145-0.312-0.409-0.676-0.78c-0.181-0.184-0.294-0.317-0.347-0.408c-0.084-0.148-0.127-0.308-0.127-0.473
					c0-0.262,0.1-0.487,0.294-0.675c0.196-0.186,0.448-0.28,0.751-0.28c0.104,0,0.203,0.01,0.294,0.031
					c0.059,0.012,0.16,0.049,0.311,0.111c0.095,0.037,0.152,0.06,0.167,0.065c0.025,0.006,0.051,0.007,0.077,0.007
					c0.049,0,0.088-0.011,0.121-0.035c0.034-0.023,0.075-0.079,0.124-0.167l0.009-0.013h0.151L26.6,45.705h-0.144l0.002-0.028
					c0.01-0.107,0.014-0.194,0.014-0.259c0-0.21-0.071-0.386-0.209-0.518c-0.138-0.134-0.325-0.2-0.554-0.2
					c-0.178,0-0.324,0.052-0.437,0.157c-0.111,0.104-0.167,0.227-0.167,0.361c0,0.121,0.036,0.237,0.108,0.347
					c0.073,0.111,0.246,0.297,0.513,0.553c0.27,0.26,0.447,0.466,0.526,0.614c0.08,0.146,0.121,0.306,0.121,0.475
					c0,0.188-0.05,0.374-0.149,0.551c-0.099,0.178-0.246,0.316-0.433,0.415C25.603,48.27,25.396,48.319,25.176,48.319z
					 M24.251,48.051c0.049,0,0.111,0.015,0.184,0.042c0.203,0.076,0.353,0.124,0.446,0.143c0.091,0.021,0.19,0.03,0.296,0.03
					c0.211,0,0.41-0.047,0.589-0.14c0.18-0.093,0.318-0.224,0.414-0.393c0.093-0.171,0.142-0.347,0.142-0.526
					c0-0.16-0.039-0.31-0.115-0.453c-0.076-0.141-0.25-0.343-0.516-0.599c-0.27-0.258-0.445-0.446-0.521-0.562
					c-0.077-0.117-0.116-0.243-0.116-0.375c0-0.151,0.062-0.285,0.185-0.4c0.122-0.113,0.281-0.17,0.472-0.17
					c0.243,0,0.441,0.072,0.59,0.215c0.149,0.143,0.226,0.33,0.226,0.555c0,0.061-0.005,0.139-0.013,0.235h0.046l0.269-1.165h-0.056
					c-0.05,0.088-0.094,0.142-0.133,0.169c-0.04,0.031-0.092,0.047-0.15,0.047c-0.031,0-0.061-0.002-0.088-0.008l-0.005-0.002
					c-0.012-0.004-0.068-0.025-0.172-0.066c-0.146-0.062-0.247-0.099-0.3-0.109c-0.088-0.019-0.183-0.03-0.284-0.03
					c-0.289,0-0.529,0.089-0.715,0.268c-0.185,0.176-0.278,0.389-0.278,0.636c0,0.155,0.041,0.306,0.121,0.447
					c0.049,0.087,0.163,0.22,0.337,0.396c0.369,0.374,0.599,0.642,0.685,0.793c0.056,0.104,0.083,0.221,0.083,0.349
					c0,0.195-0.063,0.369-0.188,0.518c-0.127,0.15-0.313,0.227-0.554,0.227c-0.262,0-0.476-0.08-0.637-0.239
					c-0.162-0.159-0.245-0.369-0.245-0.623c0-0.078,0.006-0.18,0.018-0.299h-0.044l-0.29,1.306h0.054
					C24.047,48.123,24.137,48.051,24.251,48.051z"/>
			</g>
		</g>
		<g>
			<g>
				<g>
					<path fill="#1B1464" d="M5.363,26.719l-3.051-0.315c-0.117-0.013-0.206-0.021-0.269-0.021c-0.105,0-0.184,0.03-0.237,0.09
						c-0.054,0.059-0.083,0.168-0.088,0.324l-0.1-0.03v-1.373l0.1,0.031C1.716,25.608,1.75,25.733,1.817,25.8
						c0.069,0.066,0.234,0.112,0.495,0.137l1.979,0.205L2.145,24.75c-0.038-0.002-0.07-0.003-0.094-0.003
						c-0.101,0-0.178,0.029-0.232,0.089c-0.054,0.059-0.087,0.187-0.101,0.384l-0.1-0.02v-1.482l0.1,0.031
						c0.003,0.169,0.018,0.285,0.043,0.345c0.021,0.042,0.053,0.079,0.097,0.108c0.043,0.031,0.119,0.055,0.226,0.073
						c0.032,0.004,0.24,0.026,0.627,0.065c0.386,0.039,0.913,0.097,1.58,0.173L2.53,23.355c-0.192-0.125-0.327-0.204-0.406-0.236
						c-0.078-0.033-0.144-0.048-0.198-0.048c-0.049,0-0.093,0.021-0.132,0.063c-0.039,0.042-0.064,0.116-0.076,0.221l-0.1-0.02
						v-1.086l0.1,0.027c0.007,0.096,0.031,0.181,0.071,0.255c0.04,0.074,0.116,0.161,0.228,0.261
						c0.065,0.056,0.236,0.174,0.513,0.356l2.833,1.837v0.101L2.53,24.788l2.833,1.84V26.719z"/>
					<g>
						<path fill="#1B1464" d="M1.743,26.83l-0.151-0.045V25.36l0.153,0.045l-0.001,0.02c-0.001,0.174,0.029,0.295,0.092,0.357
							c0.064,0.062,0.225,0.105,0.479,0.13l1.871,0.194l-2.05-1.329c-0.034-0.002-0.063-0.003-0.085-0.003
							c-0.095,0-0.163,0.026-0.212,0.08c-0.049,0.055-0.081,0.179-0.095,0.369l-0.001,0.029l-0.151-0.03v-1.539l0.152,0.045v0.02
							c0.003,0.166,0.017,0.279,0.042,0.335c0.018,0.038,0.047,0.071,0.087,0.099c0.04,0.028,0.112,0.05,0.216,0.068
							c0.03,0.004,0.253,0.027,0.625,0.065c0.362,0.036,0.856,0.09,1.471,0.161l-1.669-1.097c-0.189-0.124-0.324-0.203-0.4-0.234
							c-0.075-0.031-0.138-0.046-0.188-0.046c-0.042,0-0.079,0.018-0.113,0.055c-0.035,0.039-0.059,0.107-0.07,0.207l-0.002,0.028
							l-0.149-0.03v-1.141l0.151,0.04l0.001,0.019c0.007,0.092,0.03,0.174,0.068,0.244c0.039,0.071,0.114,0.156,0.223,0.255
							c0.063,0.055,0.235,0.173,0.51,0.353l2.845,1.845v0.144l-2.754-0.29l2.754,1.789v0.134l-0.028-0.002L2.31,26.43
							c-0.115-0.013-0.205-0.021-0.266-0.021c-0.097,0-0.171,0.027-0.219,0.08c-0.049,0.056-0.076,0.159-0.081,0.308L1.743,26.83z
							 M1.644,26.747l0.05,0.015c0.008-0.145,0.038-0.247,0.093-0.307c0.058-0.064,0.145-0.098,0.257-0.098
							c0.064,0,0.155,0.007,0.271,0.021l3.023,0.313v-0.049l-2.823-1.833l0.018-0.047l2.805,0.295V25l-2.823-1.831
							c-0.281-0.183-0.45-0.3-0.516-0.357c-0.114-0.102-0.192-0.193-0.233-0.268c-0.039-0.072-0.063-0.155-0.072-0.248l-0.05-0.013
							v1.031l0.052,0.01c0.014-0.096,0.04-0.165,0.079-0.208c0.044-0.048,0.096-0.072,0.152-0.072c0.057,0,0.127,0.017,0.208,0.051
							c0.081,0.033,0.214,0.111,0.41,0.238l1.761,1.157l-0.018,0.048c-0.667-0.076-1.197-0.135-1.58-0.173
							c-0.263-0.026-0.586-0.059-0.627-0.065c-0.113-0.019-0.19-0.044-0.237-0.077c-0.047-0.032-0.083-0.072-0.104-0.119
							c-0.029-0.062-0.043-0.172-0.046-0.336l-0.049-0.015v1.426l0.051,0.009c0.015-0.187,0.049-0.308,0.104-0.369
							c0.06-0.065,0.143-0.098,0.251-0.098c0.024,0,0.057,0,0.095,0.003h0.007l2.151,1.396l-0.017,0.048L2.31,25.964
							c-0.27-0.027-0.437-0.074-0.51-0.146c-0.071-0.07-0.106-0.192-0.107-0.375l-0.048-0.015V26.747z"/>
					</g>
				</g>
			</g>
			<g>
				<g>
					<path fill="#1B1464" d="M48.185,24.628l-1.449-0.419v0.342c0,0.245,0.037,0.424,0.112,0.533
						c0.075,0.11,0.214,0.204,0.415,0.282v0.1l-1.328-0.375v-0.107c0.112,0.031,0.207,0.047,0.288,0.047
						c0.075,0,0.138-0.017,0.185-0.047c0.047-0.031,0.081-0.075,0.104-0.129c0.021-0.055,0.033-0.17,0.033-0.347v-0.349l-1.21-0.352
						c-0.118-0.035-0.209-0.051-0.27-0.051c-0.047,0-0.087,0.022-0.123,0.067c-0.025,0.031-0.037,0.107-0.037,0.229v0.325
						c0,0.351,0.062,0.632,0.186,0.843c0.125,0.211,0.34,0.401,0.646,0.568v0.101l-1.016-0.345v-2.831l0.101,0.033
						c0.001,0.141,0.013,0.237,0.036,0.285c0.034,0.072,0.075,0.124,0.124,0.158c0.074,0.047,0.23,0.104,0.467,0.171l2.207,0.644
						c0.178,0.049,0.314,0.074,0.408,0.074c0.067,0,0.12-0.024,0.159-0.07c0.039-0.047,0.06-0.14,0.06-0.279v-0.057l0.1,0.03v2.628
						l-0.885-0.225v-0.1c0.083,0.013,0.152,0.019,0.207,0.019c0.097,0,0.178-0.022,0.242-0.069c0.083-0.063,0.146-0.153,0.188-0.269
						c0.033-0.087,0.05-0.286,0.05-0.597V24.628z"/>
					<g>
						<path fill="#1B1464" d="M48.408,26.364l-0.938-0.237v-0.152l0.03,0.006c0.081,0.013,0.149,0.02,0.203,0.02
							c0.092,0,0.167-0.022,0.228-0.066c0.077-0.06,0.139-0.145,0.178-0.256c0.033-0.085,0.05-0.282,0.05-0.588v-0.442l-1.397-0.405
							v0.308c0,0.239,0.037,0.414,0.107,0.518c0.071,0.105,0.207,0.197,0.402,0.273l0.017,0.006V25.5l-1.379-0.39V24.95l0.032,0.009
							c0.208,0.058,0.362,0.063,0.45,0.003c0.045-0.029,0.075-0.067,0.096-0.118c0.021-0.051,0.03-0.165,0.03-0.337v-0.329
							l-1.19-0.347c-0.115-0.033-0.202-0.049-0.262-0.049c-0.038,0-0.072,0.019-0.104,0.058c-0.012,0.014-0.031,0.062-0.031,0.212
							v0.325c0,0.345,0.062,0.624,0.183,0.83c0.122,0.207,0.336,0.394,0.636,0.559l0.014,0.008v0.152l-1.068-0.363v-2.885
							l0.152,0.051v0.019c0.003,0.137,0.015,0.229,0.034,0.275c0.032,0.066,0.071,0.116,0.115,0.146
							c0.071,0.045,0.227,0.102,0.459,0.168l2.206,0.644c0.176,0.048,0.312,0.073,0.402,0.073c0.061,0,0.105-0.02,0.14-0.062
							c0.034-0.042,0.053-0.129,0.053-0.262v-0.092l0.152,0.046V26.364z M47.522,26.087l0.834,0.211v-2.576l-0.049-0.015v0.021
							c0,0.147-0.021,0.243-0.064,0.296c-0.045,0.052-0.104,0.079-0.18,0.079c-0.096,0-0.234-0.025-0.415-0.075l-2.208-0.644
							c-0.241-0.069-0.396-0.126-0.473-0.174c-0.053-0.037-0.099-0.094-0.134-0.169c-0.022-0.05-0.035-0.141-0.038-0.277
							l-0.05-0.016v2.775l0.965,0.328v-0.049c-0.303-0.168-0.518-0.359-0.643-0.571c-0.126-0.214-0.189-0.502-0.189-0.856v-0.325
							c0-0.13,0.013-0.208,0.042-0.245c0.042-0.051,0.091-0.077,0.145-0.077c0.063,0,0.153,0.017,0.276,0.051l1.229,0.357v0.369
							c0,0.182-0.011,0.298-0.035,0.357c-0.023,0.059-0.062,0.106-0.112,0.141c-0.099,0.065-0.255,0.066-0.462,0.013v0.053
							l1.275,0.361v-0.048c-0.196-0.079-0.335-0.175-0.41-0.285c-0.076-0.113-0.116-0.297-0.116-0.547v-0.377l1.501,0.435v0.482
							c0,0.316-0.017,0.515-0.052,0.606c-0.045,0.12-0.11,0.214-0.197,0.28c-0.069,0.05-0.155,0.075-0.258,0.075
							c-0.049,0-0.109-0.004-0.182-0.016V26.087z"/>
					</g>
				</g>
			</g>
		</g>
	</g>
</g>
</svg>
